<svg xmlns="http://www.w3.org/2000/svg" fill="#fff" width="32" height="32"><path d="M9.829 19.824h17.575c.452 0 .845-.31.951-.75l2.9-12.137a.978.978 0 00-.952-1.205H9.876a.978.978 0 000 1.955h19.188L26.632 17.87H9.829c-.064 0-.124.015-.188.019L6.107 1.818a.978.978 0 00-.955-.769H1.697a.978.978 0 000 1.956h2.669l3.418 15.543a3.465 3.465 0 00-1.432 2.797c0 1.304.73 2.428 1.793 3.023a3.994 3.994 0 00-.932 2.548 4.04 4.04 0 004.034 4.035 4.04 4.04 0 004.035-4.035c0-.77-.228-1.482-.603-2.094h7.59a3.999 3.999 0 00-.597 2.094c0 2.225 1.809 4.035 4.034 4.035s4.034-1.81 4.034-4.035c0-1.926-.914-2.916-1.682-3.407-.936-.6-1.956-.647-2.247-.647-.024 0-.042.004-.065.005H9.83a1.523 1.523 0 01-1.521-1.522c0-.838.682-1.521 1.521-1.521zm1.418 9.172a2.082 2.082 0 01-2.079-2.08c0-1.146.933-2.08 2.08-2.08a2.081 2.081 0 01-.001 4.16zm16.539-2.08c0 1.147-.934 2.08-2.08 2.08a2.082 2.082 0 01-2.08-2.08c0-1.146.934-2.08 2.08-2.08h.013c.06 0 .119-.006.175-.017.29.013.91.113 1.34.515.366.341.552.874.552 1.582z"/></svg>